# Blender v3.1.2 OBJ File: ''
# www.blender.org
mtllib trash.mtl
o Cylinder
v 0.582234 -0.181300 -1.428384
v 0.582234 4.314107 -1.428384
v 1.265040 -0.181300 -0.858951
v 1.265040 4.314107 -0.858951
v 1.521451 -0.181300 0.000000
v 1.521451 4.314107 0.000000
v 1.405637 -0.181300 0.591656
v 1.405637 4.314107 0.591656
v 0.845273 -0.181300 1.285511
v 0.845273 4.314107 1.285511
v -0.296820 -0.181300 1.516364
v -0.296820 4.314107 1.516364
v -1.075828 -0.181300 1.093238
v -1.075828 4.314107 1.093238
v -1.405637 -0.181300 0.591656
v -1.405637 4.314107 0.591656
v -1.492216 -0.181300 -0.301624
v -1.492216 4.314107 -0.301624
v -1.075828 -0.181300 -1.093237
v -1.075828 4.314107 -1.093237
v -0.582234 -0.181300 -1.428384
v -0.582234 4.314107 -1.428384
vt 0.843750 1.000000
vt 0.750000 1.000000
vt 0.750000 0.500000
vt 0.843750 0.500000
vt 0.468750 1.000000
vt 0.375000 1.000000
vt 0.375000 0.500000
vt 0.468750 0.500000
vt 0.593750 1.000000
vt 0.593750 0.500000
vt 0.312500 1.000000
vt 0.218750 1.000000
vt 0.218750 0.500000
vt 0.312500 0.500000
vt 0.125000 1.000000
vt 0.125000 0.500000
vt 0.687500 1.000000
vt 0.687500 0.500000
vt 0.062500 1.000000
vt 0.937500 1.000000
vt 0.937500 0.500000
vt 0.062500 0.500000
vt 0.158156 0.471731
vt 0.080294 0.419706
vt 0.014612 0.296822
vt 0.028269 0.158156
vt 0.080294 0.080294
vt 0.203178 0.014612
vt 0.383337 0.050447
vt 0.471731 0.158156
vt 0.490000 0.250000
vt 0.449553 0.383337
vt 0.341844 0.471731
vt 0.658156 0.471731
vt 0.841844 0.471731
vt 0.949553 0.383337
vt 0.990000 0.250000
vt 0.971731 0.158156
vt 0.883337 0.050447
vt 0.703178 0.014612
vt 0.580294 0.080294
vt 0.528269 0.158156
vt 0.514612 0.296822
vt 0.580294 0.419706
vn 0.9582 0.0000 -0.2860
vn -0.4773 0.0000 0.8787
vn 0.1981 0.0000 0.9802
vn -0.9953 0.0000 0.0965
vn -0.8850 0.0000 -0.4655
vn 0.7780 0.0000 0.6283
vn 0.9814 0.0000 0.1921
vn -0.8356 0.0000 0.5494
vn 0.0000 0.0000 -1.0000
vn 0.6405 0.0000 -0.7680
vn 0.0000 1.0000 0.0000
vn -0.5617 0.0000 -0.8273
vn 0.0000 -1.0000 0.0000
usemtl Material.040
s off
f 4/1/1 6/2/1 5/3/1 3/4/1
f 12/5/2 14/6/2 13/7/2 11/8/2
f 10/9/3 12/5/3 11/8/3 9/10/3
f 16/11/4 18/12/4 17/13/4 15/14/4
f 18/12/5 20/15/5 19/16/5 17/13/5
f 8/17/6 10/9/6 9/10/6 7/18/6
f 6/2/7 8/17/7 7/18/7 5/3/7
f 14/6/8 16/11/8 15/14/8 13/7/8
f 22/19/9 2/20/9 1/21/9 21/22/9
f 2/20/10 4/1/10 3/4/10 1/21/10
f 22/23/11 20/24/11 18/25/11 16/26/11 14/27/11 12/28/11 10/29/11 8/30/11 6/31/11 4/32/11 2/33/11
f 20/15/12 22/19/12 21/22/12 19/16/12
f 21/34/13 1/35/13 3/36/13 5/37/13 7/38/13 9/39/13 11/40/13 13/41/13 15/42/13 17/43/13 19/44/13
o Cylinder.001
v 0.707597 3.829405 -1.713257
v 0.707597 4.727568 -1.713257
v 1.537419 3.829405 -1.030259
v 1.537419 4.727568 -1.030259
v 1.849039 3.829405 0.000000
v 1.849039 4.727568 0.000000
v 1.708289 3.829405 0.709654
v 1.708289 4.727568 0.709654
v 1.027271 3.829405 1.541891
v 1.027271 4.727568 1.541891
v -0.360729 3.829405 1.818784
v -0.360729 4.727568 1.818784
v -1.307468 3.829405 1.311271
v -1.307468 4.727568 1.311271
v -1.708289 3.829405 0.709655
v -1.708289 4.727568 0.709655
v -1.813510 3.829405 -0.361779
v -1.813510 4.727568 -0.361779
v -1.307468 3.829405 -1.311270
v -1.307468 4.727568 -1.311270
v -0.707596 3.829405 -1.713258
v -0.707596 4.727568 -1.713258
vt 0.843750 1.000000
vt 0.750000 1.000000
vt 0.750000 0.500000
vt 0.843750 0.500000
vt 0.468750 1.000000
vt 0.375000 1.000000
vt 0.375000 0.500000
vt 0.468750 0.500000
vt 0.593750 1.000000
vt 0.593750 0.500000
vt 0.312500 1.000000
vt 0.218750 1.000000
vt 0.218750 0.500000
vt 0.312500 0.500000
vt 0.125000 1.000000
vt 0.125000 0.500000
vt 0.687500 1.000000
vt 0.687500 0.500000
vt 0.062500 1.000000
vt 0.937500 1.000000
vt 0.937500 0.500000
vt 0.062500 0.500000
vt 0.158156 0.471731
vt 0.080294 0.419706
vt 0.014612 0.296822
vt 0.028269 0.158156
vt 0.080294 0.080294
vt 0.203178 0.014612
vt 0.383337 0.050447
vt 0.471731 0.158156
vt 0.490000 0.250000
vt 0.449553 0.383337
vt 0.341844 0.471731
vt 0.658156 0.471731
vt 0.841844 0.471731
vt 0.949553 0.383337
vt 0.990000 0.250000
vt 0.971731 0.158156
vt 0.883337 0.050447
vt 0.703178 0.014612
vt 0.580294 0.080294
vt 0.528269 0.158156
vt 0.514612 0.296822
vt 0.580294 0.419706
vn 0.9572 0.0000 -0.2895
vn -0.4725 0.0000 0.8814
vn 0.1956 0.0000 0.9807
vn -0.9952 0.0000 0.0977
vn -0.8825 0.0000 -0.4703
vn 0.7739 0.0000 0.6333
vn 0.9809 0.0000 0.1945
vn -0.8322 0.0000 0.5545
vn 0.0000 0.0000 -1.0000
vn 0.6355 0.0000 -0.7721
vn 0.0000 1.0000 0.0000
vn -0.5567 0.0000 -0.8307
vn 0.0000 -1.0000 -0.0000
usemtl Material.039
s off
f 26/45/14 28/46/14 27/47/14 25/48/14
f 34/49/15 36/50/15 35/51/15 33/52/15
f 32/53/16 34/49/16 33/52/16 31/54/16
f 38/55/17 40/56/17 39/57/17 37/58/17
f 40/56/18 42/59/18 41/60/18 39/57/18
f 30/61/19 32/53/19 31/54/19 29/62/19
f 28/46/20 30/61/20 29/62/20 27/47/20
f 36/50/21 38/55/21 37/58/21 35/51/21
f 44/63/22 24/64/22 23/65/22 43/66/22
f 24/64/23 26/45/23 25/48/23 23/65/23
f 44/67/24 42/68/24 40/69/24 38/70/24 36/71/24 34/72/24 32/73/24 30/74/24 28/75/24 26/76/24 24/77/24
f 42/59/25 44/63/25 43/66/25 41/60/25
f 43/78/26 23/79/26 25/80/26 27/81/26 29/82/26 31/83/26 33/84/26 35/85/26 37/86/26 39/87/26 41/88/26
